# xmcd
# Copyright (C) 1995-1998 Ti Kan
#
# Track frame offsets:
#       150
#       16382
#       33242
#       53901
#       74727
#       89000
#       107702
#       128511
#       152649
#       170003
#       187415
#       210642
#
# Disc length: 3066 seconds
#
# Revision: 0
# Processed by: cddbd v1.5.2PL0 Copyright (c) Steve Scherf et al.
# Submitted via: CD-Import v1.0
#
DISCID=ad0bf80c
DTITLE=Various Artist - Hip Hop Anthology
DYEAR=2009
DGENRE=
TTITLE0=Jake One Feat. Bishop Lamont and Busta Rhymes - Kissin The Curb
TTITLE1=Dj Muggs and Planet Asia Feat. B-Real - Lions In The Forest
TTITLE2=Dilated Peoples Feat. The Alchemist - Spit It Clearly
TTITLE3=The Coup Feat. Black Thought and Talib Kweli - My Favorite Mutiny
TTITLE4=88 Keys Feat. Kanye West - Stay Up (Viagra)
TTITLE5=Supernatural - Work It Out
TTITLE6=Afu-Ra - Equality
TTITLE7=
TTITLE8=Black Moon - How Many Emcee's (Must Get Dissed)
TTITLE9=Smif-N-Wessun - Bucktown
TTITLE10=West Street Mob - Break Dance - Electric Boogie
TTITLE11=Grandmaster Flash and The Furious Five - It's Nasty (Genius Of Love)
EXTD=
EXTT0=
EXTT1=
EXTT2=
EXTT3=
EXTT4=
EXTT5=
EXTT6=
EXTT7=
EXTT8=
EXTT9=
EXTT10=
EXTT11=
PLAYORDER=
